<svg width="60" height="60" viewBox="0 0 60 60" fill="none" xmlns="http://www.w3.org/2000/svg">
<g id="Instagram">
<path id="instagram" d="M30 0C46.5685 0 60 13.4315 60 30C60 46.5685 46.5685 60 30 60C13.4315 60 0 46.5685 0 30C0 13.4315 13.4315 0 30 0ZM29.998 14C25.656 14 25.1103 14.0181 23.4043 14.0957C21.7013 14.1737 20.5387 14.4443 19.5215 14.8398C18.4691 15.2485 17.5749 15.7959 16.6855 16.6855C15.7959 17.5747 15.2497 18.4678 14.8398 19.5195C14.4433 20.5371 14.1724 21.6999 14.0957 23.4023C14.0194 25.109 14 25.6548 14 30C14 34.3452 14.0184 34.8892 14.0957 36.5957C14.174 38.2987 14.4447 39.4613 14.8398 40.4785C15.2488 41.5309 15.7959 42.4251 16.6855 43.3145C17.5744 44.2042 18.4681 44.7516 19.5195 45.1602C20.5373 45.5557 21.6999 45.8263 23.4023 45.9043C25.109 45.982 25.655 46 30 46C34.3453 46 34.8891 45.982 36.5957 45.9043C38.2988 45.8263 39.4626 45.5557 40.4805 45.1602C41.5322 44.7516 42.4238 44.204 43.3125 43.3145C44.2023 42.4253 44.7502 41.5322 45.1602 40.4805C45.5535 39.4628 45.8243 38.2984 45.9043 36.5957C45.9809 34.8895 46 34.3449 46 30C46 25.6548 45.981 25.109 45.9043 23.4023C45.8243 21.6993 45.5534 20.5368 45.1602 19.5195C44.7502 18.4672 44.2025 17.5749 43.3125 16.6855C42.4227 15.7957 41.5336 15.2481 40.4805 14.8398C39.4606 14.4442 38.2968 14.1737 36.5938 14.0957C34.8873 14.018 34.3433 14 29.998 14ZM28.5664 16.8828C28.9923 16.8821 29.4681 16.8828 30.002 16.8828C34.2734 16.8828 34.78 16.898 36.4668 16.9746C38.0264 17.0459 38.8735 17.3064 39.4375 17.5254C40.1839 17.8153 40.716 18.163 41.2754 18.7227C41.8353 19.2826 42.184 19.816 42.4746 20.5625C42.6936 21.1258 42.9544 21.9737 43.0254 23.5332C43.102 25.2194 43.1172 25.727 43.1172 29.9961C43.1172 34.2653 43.102 34.7731 43.0254 36.459C42.9541 38.0185 42.6936 38.8663 42.4746 39.4297C42.1847 40.1762 41.8352 40.708 41.2754 41.2676C40.7156 41.8272 40.1842 42.1749 39.4375 42.4648C38.8742 42.6848 38.0264 42.9443 36.4668 43.0156C34.7803 43.0923 34.2734 43.1094 30.002 43.1094C25.7304 43.1094 25.223 43.0923 23.5371 43.0156C21.9771 42.9436 21.1288 42.6819 20.5645 42.4629C19.8183 42.173 19.2844 41.8273 18.7246 41.2676C18.1647 40.7077 17.818 40.1746 17.5273 39.4277C17.3085 38.8645 17.0476 38.0176 16.9766 36.459C16.8999 34.7727 16.8848 34.2644 16.8848 29.9922C16.8848 25.7205 16.8999 25.2154 16.9766 23.5293C17.0479 21.9702 17.3084 21.1225 17.5273 20.5586C17.8172 19.8124 18.1651 19.2784 18.7246 18.7188C19.2843 18.1591 19.8184 17.812 20.5645 17.5215C21.1285 17.3015 21.9773 17.0404 23.5371 16.9688C25.0124 16.9021 25.5851 16.8822 28.5664 16.8789V16.8828ZM30.002 21.7832C25.4644 21.7832 21.7854 25.4625 21.7852 30C21.7853 34.5376 25.4643 38.2148 30.002 38.2148C34.5394 38.2146 38.2166 34.5374 38.2168 30C38.2165 25.4628 34.5392 21.7836 30.002 21.7832ZM30.002 24.666C32.9471 24.6663 35.3339 27.0545 35.334 30C35.334 32.9452 32.9471 35.3337 30.002 35.334C27.0563 35.334 24.668 32.9454 24.668 30C24.6681 27.0544 27.0563 24.666 30.002 24.666ZM38.3457 19.5488C37.3781 19.6472 36.6233 20.4652 36.623 21.459C36.6231 22.519 37.483 23.3789 38.543 23.3789C39.6026 23.3785 40.4629 22.5187 40.4629 21.459C40.4626 20.3994 39.6025 19.5394 38.543 19.5391L38.3457 19.5488Z" fill="white"/>
</g>
</svg>
